# xmcd
#
# Track frame offsets:
#	150
#	19003
#	37274
#	59536
#	77135
#	93857
#	110940
#	123076
#	138717
#	152397
#	166973
#	180180
#
# Disc length: 2694 seconds
# Revision: 0
# Processed by: cddbd v1.5.2PL0 Copyright (c) Steve Scherf et al.
# Submitted via: dBpowerAMP V12.0
#
DISCID=970a840c
DTITLE=Finn Rhythm and Blues - 3 To Go
DYEAR=2014
DGENRE=Blues
TTITLE0=Why Would We Do This
TTITLE1=Can I Help You Brother
TTITLE2=Western Plains
TTITLE3=Love My Car
TTITLE4=Look After Your Friends
TTITLE5=I'm Getting Old
TTITLE6=Dublin
TTITLE7=Enniscorthy
TTITLE8=Doesn't Really Matter
TTITLE9=I Gotta Go
TTITLE10=Change This World
TTITLE11=Better Days
EXTD=
EXTT0=
EXTT1=
EXTT2=
EXTT3=
EXTT4=
EXTT5=
EXTT6=
EXTT7=
EXTT8=
EXTT9=
EXTT10=
EXTT11=
PLAYORDER=
